<?xml version="1.0" standalone="no"?>
<!DOCTYPE svg PUBLIC "-//W3C//DTD SVG 20010904//EN"
 "http://www.w3.org/TR/2001/REC-SVG-20010904/DTD/svg10.dtd">
<svg version="1.0" xmlns="http://www.w3.org/2000/svg"
 width="64.000000pt" height="64.000000pt" viewBox="0 0 64.000000 64.000000"
 preserveAspectRatio="xMidYMid meet">
<metadata>
Created by potrace 1.16, written by Peter Selinger 2001-2019
</metadata>
<g transform="translate(0.000000,64.000000) scale(0.100000,-0.100000)"
fill="#000000" stroke="none">
<path d="M0 550 c0 -16 5 -30 10 -30 6 0 10 -53 10 -140 0 -91 -4 -140 -10
-140 -7 0 -10 -22 -8 -57 l3 -58 38 -3 c22 -2 37 -8 37 -16 0 -23 36 -46 72
-46 34 0 68 24 68 48 0 9 33 12 110 12 85 0 110 -3 110 -13 0 -43 92 -64 123
-29 10 10 17 24 17 30 0 6 12 12 28 14 26 3 27 6 30 61 2 35 -1 57 -8 57 -5 0
-10 15 -10 33 0 48 -77 161 -113 165 -15 2 -27 9 -27 18 0 8 -4 14 -10 14 -5
0 -10 -7 -10 -15 0 -8 -9 -15 -20 -15 -17 0 -20 7 -20 40 0 22 5 40 10 40 6 0
10 14 10 30 l0 30 -220 0 -220 0 0 -30z m400 -170 l0 -140 -180 0 -180 0 0
140 0 140 180 0 180 0 0 -140z m159 -26 c22 -36 41 -76 41 -90 0 -24 -1 -24
-90 -24 l-90 0 0 90 0 90 49 0 49 0 41 -66z m61 -174 c0 -35 -3 -40 -24 -40
-15 0 -26 7 -29 20 -12 45 -102 45 -114 0 -5 -19 -14 -20 -123 -20 -109 0
-118 1 -123 20 -3 11 -17 24 -31 30 -33 12 -76 -3 -83 -30 -4 -15 -14 -20 -38
-20 -31 0 -32 2 -32 40 l0 40 298 0 299 0 0 -40z"/>
<path d="M181 487 c-69 -24 -98 -116 -54 -175 39 -53 134 -60 177 -13 80 89
-10 227 -123 188z m110 -36 c64 -65 20 -171 -71 -171 -91 0 -135 106 -71 171
23 23 38 29 71 29 33 0 48 -6 71 -29z"/>
</g>
</svg>
